<mxfile host="app.diagrams.net" modified="2024-04-15T15:26:25.080Z" agent="Mozilla/5.0 (Windows NT 10.0; Win64; x64) AppleWebKit/537.36 (KHTML, like Gecko) Chrome/123.0.0.0 Safari/537.36" etag="f5YEgAU4OLi5-O91iStT" version="24.2.5" type="github">
  <diagram name="Page-1" id="JIqEG8bhgT_75cIqwzy7">
    <mxGraphModel dx="1191" dy="617" grid="1" gridSize="10" guides="1" tooltips="1" connect="1" arrows="1" fold="1" page="1" pageScale="1" pageWidth="850" pageHeight="1100" math="0" shadow="0">
      <root>
        <mxCell id="0" />
        <mxCell id="1" parent="0" />
        <mxCell id="j49wpfs3-_qkZl31g0ac-2" style="edgeStyle=orthogonalEdgeStyle;rounded=0;orthogonalLoop=1;jettySize=auto;html=1;entryX=0.007;entryY=0.51;entryDx=0;entryDy=0;endArrow=none;endFill=0;entryPerimeter=0;exitX=0.5;exitY=0.5;exitDx=0;exitDy=0;exitPerimeter=0;" edge="1" parent="1" source="j49wpfs3-_qkZl31g0ac-1" target="j49wpfs3-_qkZl31g0ac-29">
          <mxGeometry relative="1" as="geometry">
            <mxPoint x="430" y="100" as="targetPoint" />
            <mxPoint x="225" y="100" as="sourcePoint" />
          </mxGeometry>
        </mxCell>
        <mxCell id="j49wpfs3-_qkZl31g0ac-1" value="&lt;span id=&quot;selected_text&quot;&gt;&lt;/span&gt;:Khách" style="shape=umlActor;verticalLabelPosition=bottom;verticalAlign=top;html=1;" vertex="1" parent="1">
          <mxGeometry x="150" y="70" width="30" height="60" as="geometry" />
        </mxCell>
        <mxCell id="j49wpfs3-_qkZl31g0ac-6" value="&lt;span id=&quot;selected_text&quot;&gt;&lt;/span&gt;&lt;span id=&quot;selected_text&quot;&gt;&lt;/span&gt;&lt;span id=&quot;selected_text&quot;&gt;&lt;/span&gt;1. //Click đăng nhập()&lt;div&gt;2. // Điền thông tin()&lt;/div&gt;&lt;div&gt;3. Nhấn đăng nhập()&lt;/div&gt;" style="text;html=1;align=center;verticalAlign=middle;resizable=0;points=[];autosize=1;strokeColor=none;fillColor=none;" vertex="1" parent="1">
          <mxGeometry x="265" y="30" width="140" height="60" as="geometry" />
        </mxCell>
        <mxCell id="j49wpfs3-_qkZl31g0ac-8" style="edgeStyle=orthogonalEdgeStyle;rounded=0;orthogonalLoop=1;jettySize=auto;html=1;exitX=0.557;exitY=0.979;exitDx=0;exitDy=0;endArrow=none;endFill=0;exitPerimeter=0;entryX=0.509;entryY=0.058;entryDx=0;entryDy=0;entryPerimeter=0;" edge="1" parent="1" source="j49wpfs3-_qkZl31g0ac-29" target="j49wpfs3-_qkZl31g0ac-31">
          <mxGeometry relative="1" as="geometry">
            <mxPoint x="550" y="210" as="targetPoint" />
            <mxPoint x="550" y="125" as="sourcePoint" />
          </mxGeometry>
        </mxCell>
        <mxCell id="j49wpfs3-_qkZl31g0ac-10" style="edgeStyle=orthogonalEdgeStyle;rounded=0;orthogonalLoop=1;jettySize=auto;html=1;exitX=0.5;exitY=1;exitDx=0;exitDy=0;endArrow=none;endFill=0;" edge="1" parent="1">
          <mxGeometry relative="1" as="geometry">
            <mxPoint x="550" y="340" as="targetPoint" />
            <mxPoint x="550" y="260" as="sourcePoint" />
          </mxGeometry>
        </mxCell>
        <mxCell id="j49wpfs3-_qkZl31g0ac-13" value="Database" style="shape=cylinder3;whiteSpace=wrap;html=1;boundedLbl=1;backgroundOutline=1;size=15;" vertex="1" parent="1">
          <mxGeometry x="515" y="340" width="70" height="80" as="geometry" />
        </mxCell>
        <mxCell id="j49wpfs3-_qkZl31g0ac-14" value="&lt;span id=&quot;selected_text&quot;&gt;&lt;/span&gt;&lt;span id=&quot;selected_text&quot;&gt;&lt;/span&gt;4. //Gửi yêu cầu đăng nhập()" style="text;html=1;align=center;verticalAlign=middle;resizable=0;points=[];autosize=1;strokeColor=none;fillColor=none;" vertex="1" parent="1">
          <mxGeometry x="565" y="150" width="180" height="30" as="geometry" />
        </mxCell>
        <mxCell id="j49wpfs3-_qkZl31g0ac-15" value="" style="endArrow=classic;html=1;rounded=0;" edge="1" parent="1">
          <mxGeometry width="50" height="50" relative="1" as="geometry">
            <mxPoint x="300" y="90" as="sourcePoint" />
            <mxPoint x="360" y="90" as="targetPoint" />
          </mxGeometry>
        </mxCell>
        <mxCell id="j49wpfs3-_qkZl31g0ac-16" value="" style="endArrow=classic;html=1;rounded=0;" edge="1" parent="1">
          <mxGeometry width="50" height="50" relative="1" as="geometry">
            <mxPoint x="565" y="150" as="sourcePoint" />
            <mxPoint x="565" y="190" as="targetPoint" />
          </mxGeometry>
        </mxCell>
        <mxCell id="j49wpfs3-_qkZl31g0ac-17" value="" style="endArrow=classic;html=1;rounded=0;" edge="1" parent="1">
          <mxGeometry width="50" height="50" relative="1" as="geometry">
            <mxPoint x="565" y="290" as="sourcePoint" />
            <mxPoint x="565" y="330" as="targetPoint" />
          </mxGeometry>
        </mxCell>
        <mxCell id="j49wpfs3-_qkZl31g0ac-18" value="&lt;span id=&quot;selected_text&quot;&gt;&lt;/span&gt;5. // Xác thực thông tin()" style="text;html=1;align=center;verticalAlign=middle;resizable=0;points=[];autosize=1;strokeColor=none;fillColor=none;" vertex="1" parent="1">
          <mxGeometry x="565" y="290" width="150" height="30" as="geometry" />
        </mxCell>
        <mxCell id="j49wpfs3-_qkZl31g0ac-25" value="" style="endArrow=classic;html=1;rounded=0;" edge="1" parent="1">
          <mxGeometry width="50" height="50" relative="1" as="geometry">
            <mxPoint x="535" y="327.5" as="sourcePoint" />
            <mxPoint x="535" y="290" as="targetPoint" />
          </mxGeometry>
        </mxCell>
        <mxCell id="j49wpfs3-_qkZl31g0ac-26" value="6. // Phản hồi" style="text;html=1;align=center;verticalAlign=middle;resizable=0;points=[];autosize=1;strokeColor=none;fillColor=none;" vertex="1" parent="1">
          <mxGeometry x="425" y="290" width="90" height="30" as="geometry" />
        </mxCell>
        <mxCell id="j49wpfs3-_qkZl31g0ac-27" value="" style="endArrow=classic;html=1;rounded=0;" edge="1" parent="1">
          <mxGeometry width="50" height="50" relative="1" as="geometry">
            <mxPoint x="535" y="190" as="sourcePoint" />
            <mxPoint x="535" y="150" as="targetPoint" />
          </mxGeometry>
        </mxCell>
        <mxCell id="j49wpfs3-_qkZl31g0ac-28" value="7. // Phản hồi" style="text;html=1;align=center;verticalAlign=middle;resizable=0;points=[];autosize=1;strokeColor=none;fillColor=none;" vertex="1" parent="1">
          <mxGeometry x="425" y="157.5" width="90" height="30" as="geometry" />
        </mxCell>
        <mxCell id="j49wpfs3-_qkZl31g0ac-29" value="&lt;span id=&quot;selected_text&quot;&gt;&lt;/span&gt;:LoginUI" style="shape=umlBoundary;whiteSpace=wrap;html=1;" vertex="1" parent="1">
          <mxGeometry x="495" y="60" width="100" height="80" as="geometry" />
        </mxCell>
        <mxCell id="j49wpfs3-_qkZl31g0ac-31" value="&lt;span id=&quot;selected_text&quot;&gt;&lt;/span&gt;&lt;span id=&quot;selected_text&quot;&gt;&lt;/span&gt;&lt;span id=&quot;selected_text&quot;&gt;&lt;/span&gt;&lt;span id=&quot;selected_text&quot;&gt;&lt;/span&gt;:Authenticate" style="ellipse;shape=umlControl;whiteSpace=wrap;html=1;" vertex="1" parent="1">
          <mxGeometry x="510" y="190" width="80" height="90" as="geometry" />
        </mxCell>
        <mxCell id="j49wpfs3-_qkZl31g0ac-32" value="" style="endArrow=classic;html=1;rounded=0;" edge="1" parent="1">
          <mxGeometry width="50" height="50" relative="1" as="geometry">
            <mxPoint x="360" y="110" as="sourcePoint" />
            <mxPoint x="300" y="110" as="targetPoint" />
          </mxGeometry>
        </mxCell>
        <mxCell id="j49wpfs3-_qkZl31g0ac-33" value="&lt;span id=&quot;selected_text&quot;&gt;&lt;/span&gt;8.1. //Hiển thị thông báo thất bại&lt;div&gt;8.2. //Đăng nhập thành công, chuyển hướng&lt;/div&gt;" style="text;html=1;align=center;verticalAlign=middle;resizable=0;points=[];autosize=1;strokeColor=none;fillColor=none;" vertex="1" parent="1">
          <mxGeometry x="205" y="117.5" width="260" height="40" as="geometry" />
        </mxCell>
      </root>
    </mxGraphModel>
  </diagram>
</mxfile>
